# xmcd
#
# Track frame offsets:
#	150
#	17797
#	35855
#	51707
#	67320
#	82232
#	99762
#	117400
#	132952
#	150632
#
# Disc length: 2179 seconds
#
# Revision: 3
# Processed by: cddbd v1.5.1PL0 Copyright (c) Steve Scherf et al.
# Submitted via: EasyCDDAExtractor 8.0.2.1
#
DISCID=9308810a
DTITLE=Kenny Rogers - We've Got Tonight
DYEAR=1983
DGENRE=Country
TTITLE0=We've Got Tonight (with Sheena Easton)
TTITLE1=Scarlet Fever
TTITLE2=Farther I Go
TTITLE3=No Dreams
TTITLE4=Bad Enough
TTITLE5=All My Life
TTITLE6=How Long
TTITLE7=Love, Love, Love
TTITLE8=What I Learned From Loving You
TTITLE9=You Are So Beautiful
EXTD=
EXTT0=
EXTT1=
EXTT2=
EXTT3=
EXTT4=
EXTT5=
EXTT6=
EXTT7=
EXTT8=
EXTT9=
PLAYORDER=
